<svg width="118" height="36" viewBox="0 0 118 36" fill="none" xmlns="http://www.w3.org/2000/svg">
<path fill-rule="evenodd" clip-rule="evenodd" d="M9.42096 31.3307L4.85694 34.0604C4.37884 34.3704 3.82781 34.5437 3.26151 34.5621C2.69521 34.5805 2.13447 34.4434 1.63797 34.165C1.14148 33.8867 0.727484 33.4774 0.439322 32.98C0.15116 32.4826 -0.000573625 31.9153 1.62961e-06 31.3376C0.00768794 30.7711 0.160776 30.2165 0.444025 29.729C0.727274 29.2416 1.1308 28.8383 1.61444 28.5593L9.42096 23.8709L17.3637 28.4551L29.9182 20.9814C30.4208 20.6546 31.0046 20.4811 31.6007 20.4813C32.3006 20.4804 32.9809 20.7164 33.5351 21.1523C34.0893 21.5881 34.4859 22.1992 34.6628 22.8896C34.8396 23.5801 34.7868 24.3108 34.5125 24.9674C34.2382 25.6239 33.7579 26.169 33.147 26.5172L17.3637 35.9427L9.42096 31.3307Z" fill="#009CD6"/>
<path fill-rule="evenodd" clip-rule="evenodd" d="M9.42101 21.948L4.85699 24.6777C4.35225 25.0055 3.76603 25.179 3.16762 25.1778C2.46941 25.1775 1.79095 24.9414 1.23817 24.5065C0.685386 24.0716 0.289391 23.4623 0.112007 22.7737C-0.0653773 22.0852 -0.0141663 21.3561 0.257645 20.7003C0.529456 20.0445 1.00657 19.499 1.61449 19.1488L9.42101 14.4743L17.3638 19.0516L29.9182 11.5988C30.2761 11.3826 30.6721 11.2404 31.0839 11.1803C31.4956 11.1202 31.9149 11.1434 32.3178 11.2485C32.7207 11.3536 33.0994 11.5387 33.4322 11.793C33.765 12.0474 34.0454 12.3661 34.2575 12.7309C34.4695 13.0958 34.6089 13.4996 34.6679 13.9195C34.7268 14.3393 34.7041 14.7668 34.601 15.1776C34.4979 15.5885 34.3164 15.9746 34.0669 16.314C33.8175 16.6533 33.5049 16.9392 33.1471 17.1554L17.3638 26.56L9.42101 21.948Z" fill="#009CD6"/>
<path fill-rule="evenodd" clip-rule="evenodd" d="M25.3473 4.87433L29.9182 2.13074C30.276 1.91456 30.6721 1.77236 31.0838 1.71227C31.4955 1.65217 31.9148 1.67535 32.3177 1.78048C32.7207 1.88561 33.0994 2.07064 33.4322 2.32499C33.765 2.57935 34.0454 2.89805 34.2574 3.2629C34.4694 3.62776 34.6089 4.03162 34.6678 4.45143C34.7267 4.87123 34.704 5.29877 34.6009 5.70962C34.4978 6.12047 34.3163 6.50659 34.0669 6.84593C33.8174 7.18528 33.5049 7.4712 33.147 7.68738L25.3473 12.348L17.4046 7.76378L4.85694 15.2166C4.37791 15.5246 3.82668 15.696 3.26064 15.7129C2.69461 15.7299 2.13445 15.5918 1.63852 15.3131C1.14258 15.0344 0.728993 14.6252 0.440818 14.1281C0.152644 13.6311 0.000421148 13.0643 0 12.4869C0.00768631 11.9204 0.160775 11.3658 0.444024 10.8783C0.727273 10.3909 1.1308 9.9876 1.61444 9.7086L17.4046 0.255371L25.3473 4.87433Z" fill="#009CD6"/>
<path d="M44.6934 5.81201H48.5762C50.6743 5.81201 52.1252 6.79832 52.1252 9.08348C52.1252 11.3687 50.8854 12.4591 48.6715 12.4591H47.2342V15.7584H44.6934V5.81201ZM47.2274 10.3754H47.6838C48.6034 10.3754 49.5094 10.3754 49.5094 9.15989C49.5094 7.94437 48.6443 7.89575 47.6838 7.89575H47.2547L47.2274 10.3754Z" fill="white"/>
<path d="M60.572 12.37C60.572 14.669 58.7055 15.9748 56.5733 15.9748C54.4412 15.9748 52.5747 14.6829 52.5747 12.37C52.5747 10.057 54.4412 8.75122 56.5733 8.75122C58.7055 8.75122 60.572 10.064 60.572 12.37ZM55.0611 12.37C55.0611 12.7799 55.2208 13.1729 55.505 13.4628C55.7892 13.7526 56.1748 13.9154 56.5767 13.9154C56.9787 13.9154 57.3642 13.7526 57.6485 13.4628C57.9327 13.1729 58.0924 12.7799 58.0924 12.37C58.0924 11.9601 57.9327 11.567 57.6485 11.2772C57.3642 10.9874 56.9787 10.8245 56.5767 10.8245C56.1748 10.8245 55.7892 10.9874 55.505 11.2772C55.2208 11.567 55.0611 11.9601 55.0611 12.37Z" fill="white"/>
<path d="M64.0323 10.0909C64.2436 9.70565 64.5568 9.38874 64.9362 9.17627C65.3156 8.96381 65.7459 8.86435 66.1781 8.88925H66.6345V11.1953C66.3289 11.0306 65.9851 10.9538 65.64 10.973C64.3321 10.973 64.0119 11.8551 64.0119 13.0151V15.7448H61.7026V8.97954H64.0323V10.0909Z" fill="white"/>
<path d="M70.7625 15.7524H68.4055V10.9598H67.6426V8.9802H68.4055V6.95203H70.7625V8.98715H72.1248V10.9667H70.7625V15.7524Z" fill="white"/>
<path d="M84.6594 12.37C84.6594 14.669 82.7929 15.9748 80.6607 15.9748C78.5286 15.9748 76.6621 14.6829 76.6621 12.37C76.6621 10.057 78.5218 8.75122 80.6607 8.75122C82.7997 8.75122 84.6594 10.064 84.6594 12.37ZM79.1485 12.37C79.1485 12.7799 79.3082 13.1729 79.5924 13.4628C79.8766 13.7526 80.2622 13.9154 80.6641 13.9154C81.0661 13.9154 81.4516 13.7526 81.7359 13.4628C82.0201 13.1729 82.1798 12.7799 82.1798 12.37C82.1798 11.9601 82.0201 11.567 81.7359 11.2772C81.4516 10.9874 81.0661 10.8245 80.6641 10.8245C80.2622 10.8245 79.8766 10.9874 79.5924 11.2772C79.3082 11.567 79.1485 11.9601 79.1485 12.37Z" fill="white"/>
<path d="M88.6988 15.7508H86.3418V10.9582H85.5107V8.97865H86.3418V8.12432C86.2808 7.68965 86.3128 7.24667 86.4356 6.82581C86.5585 6.40495 86.7692 6.01619 87.0533 5.68622C87.3374 5.35626 87.6882 5.09292 88.0816 4.9143C88.475 4.73567 88.9017 4.64599 89.3323 4.65142C89.6824 4.6434 90.0289 4.72457 90.3404 4.88758V6.97132C90.0841 6.83896 89.8032 6.76323 89.5162 6.74905C88.9099 6.74905 88.6988 7.11718 88.6988 7.88122V8.97865H90.3404V10.9582H88.6988V15.7508Z" fill="white"/>
<path d="M52.8064 28.9485H49.6525L47.2547 25.1213V28.9485H44.6934V19.009H48.4876C50.4154 19.009 51.8936 19.9467 51.8936 22.0721C51.9295 22.7202 51.7329 23.3594 51.3406 23.8706C50.9483 24.3818 50.387 24.7301 49.7615 24.8505L52.8064 28.9485ZM47.2274 23.4613H47.4726C48.3037 23.4613 49.2301 23.3015 49.2301 22.218C49.2301 21.1344 48.2969 20.9747 47.4726 20.9747H47.2274V23.4613Z" fill="white"/>
<path d="M61.0148 25.5653C61.0148 27.8644 59.1483 29.1702 57.0162 29.1702C54.8841 29.1702 53.0176 27.8782 53.0176 25.5653C53.0176 23.2523 54.8841 21.9465 57.0162 21.9465C59.1483 21.9465 61.0148 23.2593 61.0148 25.5653ZM55.5039 25.5653C55.5039 25.9752 55.6636 26.3683 55.9479 26.6581C56.2321 26.9479 56.6176 27.1107 57.0196 27.1107C57.4216 27.1107 57.8071 26.9479 58.0913 26.6581C58.3756 26.3683 58.5353 25.9752 58.5353 25.5653C58.5353 25.1554 58.3756 24.7623 58.0913 24.4725C57.8071 24.1827 57.4216 24.0199 57.0196 24.0199C56.6176 24.0199 56.2321 24.1827 55.9479 24.4725C55.6636 24.7623 55.5039 25.1554 55.5039 25.5653Z" fill="white"/>
<path d="M65.0408 28.9477H62.6702V24.1551H61.9209V22.1755H62.6702V20.1473H65.0272V22.1825H66.3896V24.162H65.0272L65.0408 28.9477Z" fill="white"/>
<path d="M70.7356 28.9477H68.3787V24.1551H67.6157V22.1755H68.3787V20.1473H70.7356V22.1825H72.098V24.162H70.7356V28.9477Z" fill="white"/>
<path d="M80.0274 25.9558H75.0683C75.0429 26.1593 75.0635 26.366 75.1284 26.5602C75.1933 26.7543 75.3007 26.9308 75.4427 27.0762C75.5846 27.2215 75.7572 27.332 75.9473 27.399C76.1374 27.4661 76.34 27.488 76.5397 27.4631C76.7655 27.4811 76.9915 27.4323 77.1909 27.3227C77.3902 27.2131 77.5544 27.0472 77.6636 26.8449H79.932C79.5574 28.4424 78.0655 29.1648 76.526 29.1648C74.3258 29.1648 72.6841 27.9007 72.6841 25.5599C72.6841 23.2192 74.1963 21.9412 76.3625 21.9412C78.665 21.9412 80.0001 23.3928 80.0001 25.6988L80.0274 25.9558ZM77.8407 24.5667C77.7606 24.2606 77.5837 23.9901 77.3373 23.7972C77.0909 23.6042 76.789 23.4996 76.4783 23.4996C76.1677 23.4996 75.8658 23.6042 75.6194 23.7972C75.373 23.9901 75.1961 24.2606 75.116 24.5667H77.8407Z" fill="white"/>
<path d="M83.8486 23.2879C84.0598 22.9027 84.373 22.5858 84.7524 22.3733C85.1318 22.1608 85.5622 22.0614 85.9943 22.0863H86.4507V24.3923C86.1451 24.2277 85.8013 24.1508 85.4562 24.17C84.1483 24.17 83.8281 25.0521 83.8281 26.2121V28.9418H81.4712V22.1766H83.8281L83.8486 23.2879Z" fill="white"/>
<path d="M92.7386 28.1905C92.5111 28.5109 92.2088 28.7682 91.8591 28.9392C91.5093 29.1103 91.1233 29.1895 90.7359 29.1699C90.2809 29.1629 89.8319 29.063 89.4154 28.8761C88.9989 28.6892 88.6234 28.4191 88.311 28.0818C87.9986 27.7445 87.7556 27.3468 87.5965 26.9121C87.4373 26.4774 87.3652 26.0147 87.3844 25.5511C87.3671 25.091 87.4397 24.632 87.598 24.2007C87.7563 23.7695 87.9972 23.3747 88.3065 23.0392C88.6158 22.7038 88.9875 22.4344 89.3999 22.2468C89.8123 22.0591 90.2572 21.957 90.7086 21.9463C91.0909 21.9389 91.4704 22.0136 91.8225 22.1656C92.1746 22.3175 92.4913 22.5434 92.7522 22.8284V17.9663H95.1091V28.9476H92.7522L92.7386 28.1905ZM89.789 25.565C89.789 25.9749 89.9487 26.368 90.2329 26.6578C90.5172 26.9476 90.9027 27.1105 91.3047 27.1105C91.7066 27.1105 92.0922 26.9476 92.3764 26.6578C92.6606 26.368 92.8203 25.9749 92.8203 25.565C92.8203 25.1551 92.6606 24.7621 92.3764 24.4722C92.0922 24.1824 91.7066 24.0196 91.3047 24.0196C90.9027 24.0196 90.5172 24.1824 90.2329 24.4722C89.9487 24.7621 89.789 25.1551 89.789 25.565Z" fill="white"/>
<path d="M104.223 28.9484H101.866V28.1913C101.639 28.5116 101.336 28.769 100.987 28.94C100.637 29.111 100.251 29.1903 99.8633 29.1707C99.4083 29.1637 98.9594 29.0638 98.5429 28.8769C98.1264 28.69 97.7509 28.4199 97.4384 28.0826C97.126 27.7453 96.8831 27.3475 96.7239 26.9129C96.5648 26.4782 96.4926 26.0155 96.5118 25.5519C96.4945 25.0918 96.5672 24.6328 96.7255 24.2015C96.8838 23.7703 97.1246 23.3755 97.4339 23.04C97.7433 22.7046 98.115 22.4352 98.5274 22.2475C98.9397 22.0599 99.3846 21.9577 99.8361 21.947C100.218 21.9396 100.598 22.0144 100.95 22.1663C101.302 22.3183 101.619 22.5442 101.88 22.8291V22.1693H104.223V28.9484ZM98.9164 25.5727C98.9164 25.9826 99.0761 26.3757 99.3604 26.6655C99.6446 26.9554 100.03 27.1182 100.432 27.1182C100.834 27.1182 101.22 26.9554 101.504 26.6655C101.788 26.3757 101.948 25.9826 101.948 25.5727C101.948 25.1629 101.788 24.7698 101.504 24.4799C101.22 24.1901 100.834 24.0273 100.432 24.0273C100.03 24.0273 99.6446 24.1901 99.3604 24.4799C99.0761 24.7698 98.9164 25.1629 98.9164 25.5727Z" fill="white"/>
<path d="M108.269 23.023C108.504 22.6806 108.819 22.4035 109.185 22.2167C109.552 22.0299 109.958 21.9394 110.368 21.9534C110.826 21.9293 111.281 22.0378 111.681 22.2664C112.081 22.495 112.41 22.8344 112.629 23.2453C112.856 22.8444 113.184 22.513 113.58 22.2857C113.975 22.0584 114.423 21.9437 114.877 21.9534C116.56 21.9534 117.145 23.0716 117.145 24.6344V28.9478H114.789V25.711C114.789 25.0165 114.789 23.8635 113.821 23.8635C112.854 23.8635 112.697 24.9053 112.697 25.711V28.9408H110.354V25.711C110.354 24.9609 110.354 23.8079 109.305 23.8079C108.256 23.8079 108.256 24.9539 108.256 25.711V28.9408H105.899V22.1756H108.256L108.269 23.023Z" fill="white"/>
</svg>
