<svg width="151" height="45" viewBox="0 0 151 45" fill="none" xmlns="http://www.w3.org/2000/svg">
<path fill-rule="evenodd" clip-rule="evenodd" d="M12.1127 39.1843L6.24464 42.6263C5.62994 43.0172 4.92147 43.2357 4.19337 43.2589C3.46528 43.2822 2.74432 43.1092 2.10597 42.7583C1.46762 42.4073 0.935337 41.8912 0.564843 41.264C0.194349 40.6368 -0.000737518 39.9215 2.09521e-06 39.1931C0.00988449 38.4787 0.206712 37.7794 0.57089 37.1647C0.935068 36.5501 1.45389 36.0415 2.07571 35.6898L12.1127 29.7779L22.3248 35.5584L38.4662 26.1345C39.1125 25.7224 39.8631 25.5036 40.6295 25.5039C41.5293 25.5028 42.4041 25.8004 43.1166 26.35C43.8291 26.8995 44.339 27.67 44.5664 28.5406C44.7938 29.4113 44.7259 30.3327 44.3732 31.1605C44.0205 31.9884 43.4031 32.6757 42.6177 33.1148L22.3248 44.9998L12.1127 39.1843Z" fill="#009CD6"/>
<path fill-rule="evenodd" clip-rule="evenodd" d="M12.1126 27.3529L6.24458 30.7949C5.59563 31.2082 4.84191 31.427 4.07253 31.4255C3.17483 31.4251 2.30253 31.1275 1.5918 30.5791C0.881082 30.0307 0.371945 29.2624 0.14388 28.3941C-0.0841852 27.5259 -0.0183424 26.6065 0.331129 25.7797C0.6806 24.9528 1.29403 24.2649 2.07565 23.8234L12.1126 17.929L22.3247 23.7007L38.4662 14.3031C38.9262 14.0305 39.4355 13.8512 39.9648 13.7755C40.4942 13.6997 41.0333 13.7289 41.5513 13.8615C42.0694 13.994 42.5563 14.2274 42.9842 14.5481C43.4121 14.8688 43.7726 15.2707 44.0452 15.7307C44.3178 16.1908 44.4971 16.7 44.5729 17.2294C44.6486 17.7587 44.6194 18.2978 44.4868 18.8159C44.3543 19.334 44.121 19.8208 43.8002 20.2487C43.4795 20.6766 43.0777 21.0371 42.6176 21.3097L22.3247 33.1684L12.1126 27.3529Z" fill="#009CD6"/>
<path fill-rule="evenodd" clip-rule="evenodd" d="M32.5895 5.82424L38.4662 2.36473C38.9263 2.09214 39.4355 1.91284 39.9649 1.83706C40.4942 1.76128 41.0333 1.79051 41.5514 1.92308C42.0695 2.05564 42.5563 2.28895 42.9842 2.60967C43.4121 2.9304 43.7727 3.33226 44.0452 3.79232C44.3178 4.25238 44.4971 4.76163 44.5729 5.29098C44.6487 5.82034 44.6195 6.35943 44.4869 6.87749C44.3543 7.39555 44.121 7.88242 43.8003 8.31032C43.4796 8.73821 43.0777 9.09874 42.6176 9.37133L32.5895 15.2481L22.3773 9.46767L6.24463 18.8653C5.62875 19.2536 4.92002 19.4697 4.19226 19.4911C3.46449 19.5125 2.7443 19.3384 2.10667 18.9869C1.46903 18.6355 0.937276 18.1195 0.566766 17.4927C0.196256 16.866 0.000541476 16.1514 0 15.4233C0.0098824 14.7089 0.20671 14.0096 0.570888 13.395C0.935065 12.7803 1.45389 12.2718 2.07571 11.92L22.3773 0L32.5895 5.82424Z" fill="#009CD6"/>
<path d="M57.4629 7.00586H62.4551C65.1526 7.00586 67.0182 8.24953 67.0182 11.131C67.0182 14.0125 65.4242 15.3875 62.5777 15.3875H60.7297V19.5477H57.4629V7.00586ZM60.721 12.76H61.3078C62.4901 12.76 63.655 12.76 63.655 11.2273C63.655 9.69464 62.5427 9.63333 61.3078 9.63333H60.756L60.721 12.76Z" fill="#002D60"/>
<path d="M77.8784 15.274C77.8784 18.173 75.4786 19.8195 72.7373 19.8195C69.996 19.8195 67.5962 18.1905 67.5962 15.274C67.5962 12.3575 69.996 10.7109 72.7373 10.7109C75.4786 10.7109 77.8784 12.3662 77.8784 15.274ZM70.793 15.274C70.793 15.7908 70.9983 16.2865 71.3637 16.6519C71.7292 17.0174 72.2248 17.2227 72.7417 17.2227C73.2585 17.2227 73.7542 17.0174 74.1196 16.6519C74.4851 16.2865 74.6904 15.7908 74.6904 15.274C74.6904 14.7572 74.4851 14.2615 74.1196 13.896C73.7542 13.5306 73.2585 13.3253 72.7417 13.3253C72.2248 13.3253 71.7292 13.5306 71.3637 13.896C70.9983 14.2615 70.793 14.7572 70.793 15.274Z" fill="#002D60"/>
<path d="M82.3275 12.4027C82.5992 11.917 83.0019 11.5174 83.4897 11.2495C83.9775 10.9816 84.5307 10.8561 85.0864 10.8875H85.6732V13.7953C85.2802 13.5877 84.8382 13.4908 84.3945 13.515C82.7129 13.515 82.3013 14.6273 82.3013 16.0899V19.5319H79.3322V11.0014H82.3275V12.4027Z" fill="#002D60"/>
<path d="M90.9807 19.5401H87.9503V13.4969H86.9694V11.0008H87.9503V8.44336H90.9807V11.0095H92.7323V13.5056H90.9807V19.5401Z" fill="#002D60"/>
<path d="M108.848 15.274C108.848 18.173 106.448 19.8195 103.706 19.8195C100.965 19.8195 98.5654 18.1905 98.5654 15.274C98.5654 12.3575 100.956 10.7109 103.706 10.7109C106.457 10.7109 108.848 12.3662 108.848 15.274ZM101.762 15.274C101.762 15.7908 101.967 16.2865 102.333 16.6519C102.698 17.0174 103.194 17.2227 103.711 17.2227C104.228 17.2227 104.723 17.0174 105.089 16.6519C105.454 16.2865 105.66 15.7908 105.66 15.274C105.66 14.7572 105.454 14.2615 105.089 13.896C104.723 13.5306 104.228 13.3253 103.711 13.3253C103.194 13.3253 102.698 13.5306 102.333 13.896C101.967 14.2615 101.762 14.7572 101.762 15.274Z" fill="#002D60"/>
<path d="M114.041 19.5393H111.011V13.4961H109.942V11H111.011V9.92278C110.932 9.37468 110.974 8.81611 111.131 8.28543C111.289 7.75475 111.56 7.26454 111.926 6.84848C112.291 6.43242 112.742 6.10036 113.248 5.87512C113.754 5.64989 114.302 5.53681 114.856 5.54365C115.306 5.53354 115.751 5.63589 116.152 5.84143V8.46891C115.822 8.30202 115.461 8.20652 115.092 8.18864C114.313 8.18864 114.041 8.65283 114.041 9.61624V11H116.152V13.4961H114.041V19.5393Z" fill="#002D60"/>
<path d="M67.894 36.1795H63.8389L60.756 31.3537V36.1795H57.4629V23.6465H62.3413C64.8198 23.6465 66.7204 24.8288 66.7204 27.5089C66.7665 28.3261 66.5137 29.1321 66.0093 29.7767C65.505 30.4213 64.7833 30.8604 63.979 31.0122L67.894 36.1795ZM60.721 29.2605H61.0363C62.1048 29.2605 63.2959 29.0591 63.2959 27.6928C63.2959 26.3265 62.096 26.1251 61.0363 26.1251H60.721V29.2605Z" fill="#002D60"/>
<path d="M78.4477 31.9146C78.4477 34.8136 76.0479 36.4601 73.3066 36.4601C70.5652 36.4601 68.1655 34.8311 68.1655 31.9146C68.1655 28.9981 70.5652 27.3516 73.3066 27.3516C76.0479 27.3516 78.4477 29.0069 78.4477 31.9146ZM71.3622 31.9146C71.3622 32.4314 71.5675 32.9271 71.933 33.2926C72.2984 33.658 72.7941 33.8633 73.3109 33.8633C73.8278 33.8633 74.3234 33.658 74.6889 33.2926C75.0543 32.9271 75.2596 32.4314 75.2596 31.9146C75.2596 31.3978 75.0543 30.9021 74.6889 30.5367C74.3234 30.1712 73.8278 29.9659 73.3109 29.9659C72.7941 29.9659 72.2984 30.1712 71.933 30.5367C71.5675 30.9021 71.3622 31.3978 71.3622 31.9146Z" fill="#002D60"/>
<path d="M83.6238 36.1807H80.5759V30.1375H79.6125V27.6414H80.5759V25.084H83.6062V27.6502H85.3579V30.1463H83.6062L83.6238 36.1807Z" fill="#002D60"/>
<path d="M90.9457 36.1807H87.9154V30.1375H86.9344V27.6414H87.9154V25.084H90.9457V27.6502H92.6974V30.1463H90.9457V36.1807Z" fill="#002D60"/>
<path d="M102.892 32.406H96.5159C96.4833 32.6626 96.5098 32.9232 96.5932 33.168C96.6766 33.4128 96.8148 33.6354 96.9973 33.8187C97.1797 34.002 97.4016 34.1412 97.6461 34.2258C97.8905 34.3103 98.151 34.3379 98.4077 34.3066C98.698 34.3292 98.9887 34.2678 99.245 34.1295C99.5013 33.9913 99.7123 33.7821 99.8528 33.5271H102.769C102.288 35.5415 100.37 36.4523 98.3902 36.4523C95.5613 36.4523 93.4505 34.8583 93.4505 31.9068C93.4505 28.9553 95.3949 27.3438 98.18 27.3438C101.14 27.3438 102.857 29.1742 102.857 32.082L102.892 32.406ZM100.081 30.6544C99.9775 30.2685 99.75 29.9274 99.4333 29.6841C99.1165 29.4408 98.7283 29.3089 98.3289 29.3089C97.9295 29.3089 97.5413 29.4408 97.2245 29.6841C96.9078 29.9274 96.6802 30.2685 96.5772 30.6544H100.081Z" fill="#002D60"/>
<path d="M107.805 29.0433C108.077 28.5576 108.48 28.158 108.967 27.8901C109.455 27.6222 110.008 27.4968 110.564 27.5282H111.151V30.4359C110.758 30.2283 110.316 30.1315 109.872 30.1556C108.191 30.1556 107.779 31.2679 107.779 32.7306V36.1726H104.749V27.642H107.779L107.805 29.0433Z" fill="#002D60"/>
<path d="M119.235 35.2261C118.942 35.63 118.554 35.9546 118.104 36.1702C117.654 36.3859 117.158 36.4858 116.66 36.461C116.075 36.4522 115.498 36.3262 114.962 36.0906C114.427 35.8549 113.944 35.5144 113.542 35.089C113.141 34.6637 112.828 34.1622 112.624 33.6141C112.419 33.066 112.326 32.4825 112.351 31.898C112.329 31.3178 112.422 30.739 112.626 30.1952C112.829 29.6515 113.139 29.1536 113.536 28.7306C113.934 28.3076 114.412 27.968 114.942 27.7314C115.472 27.4948 116.044 27.366 116.625 27.3525C117.116 27.3431 117.604 27.4374 118.057 27.629C118.51 27.8206 118.917 28.1054 119.252 28.4648V22.334H122.283V36.1808H119.252L119.235 35.2261ZM115.443 31.9155C115.443 32.4323 115.648 32.928 116.013 33.2935C116.379 33.6589 116.874 33.8642 117.391 33.8642C117.908 33.8642 118.404 33.6589 118.769 33.2935C119.135 32.928 119.34 32.4323 119.34 31.9155C119.34 31.3987 119.135 30.903 118.769 30.5376C118.404 30.1721 117.908 29.9668 117.391 29.9668C116.874 29.9668 116.379 30.1721 116.013 30.5376C115.648 30.903 115.443 31.3987 115.443 31.9155Z" fill="#002D60"/>
<path d="M134.001 36.1805H130.971V35.2259C130.678 35.6298 130.29 35.9543 129.84 36.1699C129.39 36.3856 128.894 36.4856 128.396 36.4608C127.811 36.4519 127.234 36.326 126.698 36.0903C126.163 35.8547 125.68 35.5141 125.278 35.0888C124.877 34.6634 124.564 34.1619 124.36 33.6138C124.155 33.0658 124.062 32.4822 124.087 31.8977C124.065 31.3175 124.158 30.7387 124.362 30.195C124.565 29.6512 124.875 29.1534 125.272 28.7304C125.67 28.3074 126.148 27.9677 126.678 27.7311C127.209 27.4945 127.78 27.3657 128.361 27.3522C128.852 27.3429 129.34 27.4371 129.793 27.6287C130.246 27.8204 130.653 28.1051 130.988 28.4645V27.6325H134.001V36.1805ZM127.179 31.924C127.179 32.4408 127.384 32.9365 127.749 33.3019C128.115 33.6674 128.61 33.8727 129.127 33.8727C129.644 33.8727 130.14 33.6674 130.505 33.3019C130.871 32.9365 131.076 32.4408 131.076 31.924C131.076 31.4072 130.871 30.9115 130.505 30.5461C130.14 30.1806 129.644 29.9753 129.127 29.9753C128.61 29.9753 128.115 30.1806 127.749 30.5461C127.384 30.9115 127.179 31.4072 127.179 31.924Z" fill="#002D60"/>
<path d="M139.204 28.7103C139.505 28.2786 139.91 27.9291 140.381 27.6936C140.852 27.458 141.375 27.3439 141.901 27.3616C142.49 27.3312 143.076 27.4681 143.59 27.7563C144.105 28.0446 144.527 28.4725 144.809 28.9906C145.101 28.4851 145.523 28.0672 146.031 27.7806C146.54 27.4941 147.116 27.3493 147.699 27.3616C149.862 27.3616 150.616 28.7716 150.616 30.7422V36.1811H147.585V32.0998C147.585 31.224 147.585 29.7701 146.342 29.7701C145.098 29.7701 144.897 31.0838 144.897 32.0998V36.1724H141.884V32.0998C141.884 31.1539 141.884 29.7 140.535 29.7C139.186 29.7 139.186 31.1451 139.186 32.0998V36.1724H136.156V27.6418H139.186L139.204 28.7103Z" fill="#002D60"/>
</svg>
